PathFileType	4	(X/Y/Z)	/Users/niels/Desktop/University/Third Semester/Perception and Action/Exam/Gymnastics Motion Tracking/Code for Gym Tracking/Analyzed Data/Webcam_Backflip/id1_6_trajectory_Sports2D/id1_6_trajectory_Sports2D_px_person00.trc
DataRate	CameraRate	NumFrames	NumMarkers	Units	OrigDataRate	OrigDataStartFrame	OrigNumFrames
29.714285714285715	29.714285714285715	12	22	m	29.714285714285715	26	105
Frame#	Time	Hip			RHip			RKnee			RAnkle			RBigToe			RSmallToe			RHeel			LHip			LKnee			LAnkle			LBigToe			LSmallToe			LHeel			Neck			Head			Nose			RShoulder			RElbow			RWrist			LShoulder			LElbow			LWrist		
		X1	Y1	Z1	X2	Y2	Z2	X3	Y3	Z3	X4	Y4	Z4	X5	Y5	Z5	X6	Y6	Z6	X7	Y7	Z7	X8	Y8	Z8	X9	Y9	Z9	X10	Y10	Z10	X11	Y11	Z11	X12	Y12	Z12	X13	Y13	Z13	X14	Y14	Z14	X15	Y15	Z15	X16	Y16	Z16	X17	Y17	Z17	X18	Y18	Z18	X19	Y19	Z19	X20	Y20	Z20	X21	Y21	Z21	X22	Y22	Z22
26	0.875	1.0825046171045158	-0.3505220841918631	0.0	1.0691210834346248	-0.3579592459839821	0.0	0.9736714673389679	-0.35058233850831033	0.0	0.8917311075544737	-0.29383473210583533	0.0	0.874719301903011	-0.3273419451062581	0.0	0.8604399501214753	-0.32150496679139123	0.0	0.883966562042473	-0.2834570127184705	0.0	1.0979601229325617	-0.3550151059857462	0.0	0.9984858707868636	-0.33680531648504375	0.0	0.9232059026474397	-0.3032245817692541	0.0	0.8838133974325094	-0.3281608841360005	0.0	0.8899103720857843	-0.3178991150800233	0.0	0.9120512836238747	-0.2839505132777543	0.0	1.065808876991393	-0.515116625123749	0.0	1.0678997219515427	-0.5900983214359569	0.0	1.0394909076653638	-0.5597275247240273	0.0	1.032325516284744	-0.4964071600810506	0.0	0.9949522122998438	-0.4162341550586906	0.0	0.9649170267674044	-0.3695246350813364	0.0	1.0979741782438817	-0.4925599266685476	0.0	1.1046545664315823	-0.42640532135139003	0.0	1.093235405314306	-0.4121906352318587	0.0
27	0.9086538461538461	1.072305651433381	-0.3584815208451414	0.0	1.0584630449334285	-0.36795390642551	0.0	0.9671670806924847	-0.3925169565440463	0.0	0.8685637517020961	-0.36794270608405355	0.0	0.8496902422592426	-0.41715832705662287	0.0	0.8403177570002962	-0.41136340151060474	0.0	0.855759692855237	-0.3586270761744254	0.0	1.0893296345219465	-0.3602223574706241	0.0	0.9896466554741461	-0.37604084968474183	0.0	0.8952954985359672	-0.3716812529559805	0.0	0.866534578651948	-0.41600737480601757	0.0	0.8683180117793277	-0.40527951481368535	0.0	0.8799656237944845	-0.358007770177888	0.0	1.095209230620657	-0.516443385254611	0.0	1.1160892627567496	-0.588350179075164	0.0	1.0813464766041483	-0.5660632192479119	0.0	1.058591816720995	-0.5055876636548509	0.0	1.0018898930666305	-0.44555928077728163	0.0	0.959255239351096	-0.41577527987662655	0.0	1.124258779843635	-0.489424724180971	0.0	1.1223764668818619	-0.4190544894247666	0.0	1.108649729159961	-0.4314718595302112	0.0
28	0.9423076923076923	1.0602877627002312	-0.37442810020327044	0.0	1.0453682009572929	-0.3839473112653511	0.0	0.9637880965926565	-0.43857126201913627	0.0	0.8600035512951352	-0.45020127564510276	0.0	0.8477337604813251	-0.5094744192273413	0.0	0.8393750457677858	-0.5039555445144325	0.0	0.8434447294200645	-0.4434994098368243	0.0	1.078839475722639	-0.37447016820288953	0.0	0.9872637437172987	-0.42102954011679516	0.0	0.8869924366092262	-0.448404040630778	0.0	0.8724203206789707	-0.5046656923801854	0.0	0.8731300337881539	-0.49456474078075874	0.0	0.8692777363155415	-0.44142783843911576	0.0	1.1215415959346036	-0.5163320007610838	0.0	1.1609297314660496	-0.5815417583555664	0.0	1.1210294368028715	-0.568252162691404	0.0	1.0830597501951582	-0.5130590099780826	0.0	1.0127002746300315	-0.4803997942449677	0.0	0.9606480809487016	-0.4710986696755116	0.0	1.1460071097192928	-0.48555331858641126	0.0	1.1339756651409105	-0.41422315490159745	0.0	1.1217800006796281	-0.4549228878139243	0.0
29	0.9759615384615384	1.0482452100272648	-0.39993131038266544	0.0	1.0317565625835534	-0.4074229727763414	0.0	0.9632212944181658	-0.4893138357412606	0.0	0.8648724882362094	-0.5368064616829096	0.0	0.864164945877169	-0.599595465889807	0.0	0.8543128899509126	-0.5948349925488918	0.0	0.8461930477909922	-0.5338750683184978	0.0	1.0683295933734616	-0.400015684076058	0.0	0.9915183186858479	-0.47252234093088313	0.0	0.8973953640655054	-0.5295527205556286	0.0	0.8979396178563975	-0.5897885279282657	0.0	0.899341844725741	-0.5803943475479467	0.0	0.8792548134314583	-0.5295397986443992	0.0	1.1420240663118146	-0.5154508343768158	0.0	1.1978684222320404	-0.5702688969900817	0.0	1.1541054558480108	-0.5664216127866831	0.0	1.1031420699081929	-0.519131875438209	0.0	1.0290025537929723	-0.5179409874184154	0.0	0.9755503349294007	-0.5313885481836764	0.0	1.160863383359187	-0.48232115188637364	0.0	1.1391163384953864	-0.41567227008218555	0.0	1.1321212726235421	-0.4786366429446619	0.0
30	1.0096153846153846	1.0369960312952113	-0.43511448144100145	0.0	1.0189482827487137	-0.4394895793118276	0.0	0.9658098023378688	-0.5446285759611892	0.0	0.8807190017087653	-0.6242300459505401	0.0	0.8929715146252213	-0.6846741777447702	0.0	0.8808180320037261	-0.6813165435916928	0.0	0.8616382318445931	-0.6257888198237056	0.0	1.05849486794766	-0.43671045108530254	0.0	1.0013039055504207	-0.5299451146738212	0.0	0.9213713094422118	-0.6114718645657362	0.0	0.9358047707056	-0.6693528673375418	0.0	0.9375165457179783	-0.6602864719400248	0.0	0.9044398640035411	-0.6178027888908822	0.0	1.1542789156282725	-0.5150014970683666	0.0	1.2233655919587172	-0.5564088479807917	0.0	1.1772711326610936	-0.5621061644528416	0.0	1.1167606482941344	-0.5250535540697334	0.0	1.051171018018331	-0.5547936424598328	0.0	1.0079205513033154	-0.5897669232635497	0.0	1.167286276106324	-0.4809763314664189	0.0	1.140241513835434	-0.42582485249375956	0.0	1.141316520970643	-0.4987327295187961	0.0
31	1.0432692307692306	1.0269791971755	-0.4787080028718488	0.0	1.0079588907186072	-0.4802921939600334	0.0	0.9717923661025374	-0.6032888152960323	0.0	0.9034570064122494	-0.7087218922120523	0.0	0.9276221914851949	-0.7630449583097816	0.0	0.9136366444985481	-0.7616565758625742	0.0	0.8852897164889874	-0.7147458913240383	0.0	1.0493629589357352	-0.48218613814497996	0.0	1.0141799180256472	-0.5905320470119201	0.0	0.9509497816279797	-0.6904150268835497	0.0	0.9767636442577374	-0.7420476061194174	0.0	0.9769923519301172	-0.7331480689679151	0.0	0.9359922846794836	-0.7016245547318186	0.0	1.1572403296142193	-0.5166374252675745	0.0	1.2359000862565168	-0.542775789808376	0.0	1.189376657062829	-0.5578243888261776	0.0	1.1230847953752774	-0.5324233888068162	0.0	1.0780682848378533	-0.5870608202434985	0.0	1.0569871507353292	-0.6370002746281944	0.0	1.1649355255008242	-0.4828506538175044	0.0	1.1410982934161515	-0.44462452172190214	0.0	1.1530581298364455	-0.5136967836125287	0.0
32	1.0769230769230769	1.0187099566762543	-0.5283074147494274	0.0	0.9996001037130269	-0.5281805928907359	0.0	0.9804762067709795	-0.6630298342031073	0.0	0.9275206451404883	-0.7862256257305636	0.0	0.9614078584782043	-0.8336007567063253	0.0	0.9466395448029121	-0.8343295500478806	0.0	0.9107324427101781	-0.7957576717165966	0.0	1.041098175913547	-0.5328618152701059	0.0	1.0272839478106073	-0.6506618897375361	0.0	0.9783323701892828	-0.7627967727839624	0.0	1.012975248597885	-0.8065096276304907	0.0	1.0094844340405005	-0.7980067051501021	0.0	0.965098587911932	-0.7769729761219706	0.0	1.15165527495385	-0.5219095335102869	0.0	1.2362838613539013	-0.5323385875104897	0.0	1.1913604514232592	-0.5560346194197674	0.0	1.122640530765575	-0.5422838351870417	0.0	1.1067709552970255	-0.6111574463448114	0.0	1.1158398417409698	-0.6646722197574948	0.0	1.1548641999623828	-0.4893347073653453	0.0	1.1442858014094452	-0.46898252415620767	0.0	1.169131637836987	-0.523789085285406	0.0
33	1.1105769230769231	1.012619133987909	-0.580138243770947	0.0	0.9941796044936172	-0.5792670816424587	0.0	0.9902210400765245	-0.7204549895761411	0.0	0.9474311454951013	-0.8527682759493233	0.0	0.9885648597452891	-0.895244804624562	0.0	0.9740030635940067	-0.8976623407729964	0.0	0.931521075862809	-0.8642503528272841	0.0	1.0342149603148818	-0.5845142665895381	0.0	1.0385348550936275	-0.7068259465193542	0.0	0.9984381330970064	-0.8252591312109983	0.0	1.0402324006669859	-0.8612903101432526	0.0	1.0309782172371729	-0.8534983864383904	0.0	0.9860150582527331	-0.840686038918785	0.0	1.1400170711795283	-0.5315335746375676	0.0	1.2272977356188277	-0.5273706926164017	0.0	1.1855990971307082	-0.558188546709809	0.0	1.1170034966285334	-0.5545326268666486	0.0	1.1328321006418285	-0.6252428973276597	0.0	1.1729506442320858	-0.6694646921703199	0.0	1.1395505502834828	-0.5012883056714615	0.0	1.1494279336012558	-0.49444111697971643	0.0	1.1865083590524645	-0.5295406885761272	0.0
34	1.1442307692307692	1.0087744584568135	-0.6291175431146058	0.0	0.9913689655161124	-0.6281146934943972	0.0	0.9993859324060959	-0.771197616376372	0.0	0.9599984008313459	-0.9049117485509969	0.0	1.0058401019667462	-0.9463378691878721	0.0	0.9919213915130917	-0.9495599644799835	0.0	0.9438142285203546	-0.9168596784085985	0.0	1.0292932624269486	-0.6325072540146459	0.0	1.0472211814117784	-0.7554869422213687	0.0	1.0097271391336693	-0.8746251110569957	0.0	1.0575480995997575	-0.9049458359813798	0.0	1.04133432846227	-0.8980275114625016	0.0	0.9970136387981275	-0.8902244867162529	0.0	1.1258724933833366	-0.5448707064433069	0.0	1.212928270629244	-0.5286410197148078	0.0	1.1753028755589765	-0.564351566138462	0.0	1.1083235113850105	-0.5679256681526634	0.0	1.151839803836648	-0.6301287372401813	0.0	1.2173487371456528	-0.6551841566243697	0.0	1.1224686549149028	-0.5182827927926345	0.0	1.1540430002278268	-0.51801323004012	0.0	1.2000475248779812	-0.5321272275418768	0.0
35	1.1778846153846154	1.0068446620281641	-0.6701103091884812	0.0	0.9904460360078399	-0.6693627089289292	0.0	1.0076120901715213	-0.8105841611620258	0.0	0.9655016084012784	-0.939846947765966	0.0	1.01331452180166	-0.9837246923707124	0.0	0.9997191171164623	-0.9867178277168513	0.0	0.9478557134036869	-0.9513323786819864	0.0	1.026606979584655	-0.6724582657358338	0.0	1.0539820659852512	-0.7930837237408033	0.0	1.0135423292837717	-0.9080925831661165	0.0	1.0655894853055936	-0.9360524748610568	0.0	1.0428463944228905	-0.9300846689700755	0.0	0.9995386822372804	-0.9234663875277551	0.0	1.1126675054401614	-0.5597910726686578	0.0	1.1973338707291956	-0.5347874174949068	0.0	1.1638198259750758	-0.5732245016301306	0.0	1.0987981585810085	-0.5804690867436321	0.0	1.1613165851953107	-0.6286772088926844	0.0	1.2432857520154386	-0.6308837708950823	0.0	1.107090294135125	-0.5381017228485212	0.0	1.1563732207633906	-0.5387954347171472	0.0	1.2070428046153807	-0.5340776797523964	0.0
36	1.2115384615384615	1.0063505340916685	-0.6993390024116878	0.0	0.9907093584737269	-0.699073605633923	0.0	1.0163530680460036	-0.83442587319191	0.0	0.967105709125753	-0.9553607170455468	0.0	1.0138467837852423	-1.0024321309676576	0.0	0.999832718386155	-1.0043762883522476	0.0	0.9473894709502686	-0.9660354458395378	0.0	1.0260759719673125	-0.7010136934030322	0.0	1.0603968674202942	-0.8164556642187553	0.0	1.0126942225819462	-0.9236864808584473	0.0	1.0656817290056242	-0.9530411570179507	0.0	1.0390253362032	-0.9480465976971418	0.0	0.9965896496857409	-0.9386780732320631	0.0	1.1027669855181448	-0.5731178226957474	0.0	1.183846748484067	-0.5425284500764914	0.0	1.1537982621649345	-0.5823981188104106	0.0	1.0902298771537264	-0.5898755113864382	0.0	1.1613239433624334	-0.6241010430419591	0.0	1.2511219337022736	-0.6066552640130604	0.0	1.0959022982192483	-0.5570626468885411	0.0	1.156747618657923	-0.5566813083300356	0.0	1.208689504250117	-0.5383950750498627	0.0
37	1.2451923076923077	1.00692152340542	-0.7149019682398068	0.0	0.9917259278011752	-0.7152461694200775	0.0	1.0279636107448902	-0.840127115167521	0.0	0.9689307451036074	-0.9505299609261264	0.0	1.0115356606718784	-0.9986282273789434	0.0	0.996651305025954	-0.9991189170545426	0.0	0.9473542115693284	-0.9603050612990576	0.0	1.0274171472500084	-0.7162814231694781	0.0	1.0682243327210381	-0.823669623856875	0.0	1.0102169952404607	-0.9209984545622367	0.0	1.059945473399002	-0.9542598061552384	0.0	1.03382799759098	-0.9500290304722504	0.0	0.9915254811402613	-0.9350650412186791	0.0	1.0971566197242786	-0.5816219385226762	0.0	1.174497898113052	-0.5479492543715166	0.0	1.146790927678149	-0.5889508894476794	0.0	1.0837432722518692	-0.5939513798890774	0.0	1.1536509267869572	-0.6184837738953662	0.0	1.2452566350069811	-0.5898893545641305	0.0	1.0900534229020253	-0.571306589306958	0.0	1.1566196306348908	-0.5714516638486239	0.0	1.2084101629726944	-0.5469076907178688	0.0
